# xmcd
#
# Track frame offsets:
#	150
#	16663
#	33505
#	48009
#	70466
#	93074
#	107453
#	125526
#	150110
#	181894
#
# Disc length: 2747 seconds
#
# Revision: 1
# Processed by: cddbd v1.4PL0 Copyright (c) Steve Scherf et al.
# Submitted via: EasyCDDAExtractor 5.0.6
#
DISCID=670ab90a
DTITLE=King Cotton Blues Band - 10' Tall
DYEAR=1900
DGENRE=Blues
TTITLE0=10' Tall
TTITLE1=The Blues Look Good On You
TTITLE2=If Your Baby Knew
TTITLE3=Coonhound Blues
TTITLE4=Black Cat Bone
TTITLE5=Spider To The Fly
TTITLE6=Workin' Man Blues
TTITLE7=Cheatin' Wine
TTITLE8=Goin' Down
TTITLE9=Soul Patch
EXTD=
EXTT0=
EXTT1=
EXTT2=
EXTT3=
EXTT4=
EXTT5=
EXTT6=
EXTT7=
EXTT8=
EXTT9=
PLAYORDER=
